HIERARCHY
ROOT Hips
{
	OFFSET 0.00 86.18 0.00
	CHANNELS 6 Xposition Yposition Zposition Yrotation Xrotation Zrotation
	JOINT RightUpLeg
	{
		OFFSET -9.25 0.00 0.00
		CHANNELS 6 Xposition Yposition Zposition Yrotation Xrotation Zrotation
		JOINT RightLeg
		{
			OFFSET 0.00 -42.00 0.00
			CHANNELS 6 Xposition Yposition Zposition Yrotation Xrotation Zrotation
			JOINT RightFoot
			{
				OFFSET 0.00 -42.00 0.00
				CHANNELS 6 Xposition Yposition Zposition Yrotation Xrotation Zrotation
				End Site
				{
					OFFSET 0 -1.14 11.36
				}
			}
		}
	}
	JOINT LeftUpLeg
	{
		OFFSET 9.25 0.00 0.00
		CHANNELS 6 Xposition Yposition Zposition Yrotation Xrotation Zrotation
		JOINT LeftLeg
		{
			OFFSET 0.00 -42.00 0.00
			CHANNELS 6 Xposition Yposition Zposition Yrotation Xrotation Zrotation
			JOINT LeftFoot
			{
				OFFSET 0.00 -42.00 0.00
				CHANNELS 6 Xposition Yposition Zposition Yrotation Xrotation Zrotation
				End Site
				{
					OFFSET 0 -1.14 11.36
				}
			}
		}
	}
	JOINT Spine
	{
		OFFSET 0.00 10.46 0.00
		CHANNELS 6 Xposition Yposition Zposition Yrotation Xrotation Zrotation
		JOINT Spine1
		{
			OFFSET 0.00 9.75 0.00
			CHANNELS 6 Xposition Yposition Zposition Yrotation Xrotation Zrotation
			JOINT Spine2
			{
				OFFSET 0.00 10.15 0.00
				CHANNELS 6 Xposition Yposition Zposition Yrotation Xrotation Zrotation
				JOINT Spine3
				{
					OFFSET 0.00 9.75 0.00
					CHANNELS 6 Xposition Yposition Zposition Yrotation Xrotation Zrotation
			 		JOINT Neck
					{
						OFFSET 0.00 10.42 0.00
						CHANNELS 6 Xposition Yposition Zposition Yrotation Xrotation Zrotation
						JOINT Head
						{
							OFFSET 0.00 9.50 0.00
							CHANNELS 6 Xposition Yposition Zposition Yrotation Xrotation Zrotation
							End Site
							{
								OFFSET 0 16.00 0
							}
						}    
					} 
					JOINT RightShoulder
	 					{
						OFFSET -3.20 6.94 0.00
						CHANNELS 6 Xposition Yposition Zposition Yrotation Xrotation Zrotation
						JOINT RightArm
						{
							OFFSET -16.00 0.00 0.00
							CHANNELS 6 Xposition Yposition Zposition Yrotation Xrotation Zrotation
							JOINT RightForeArm
							{
								OFFSET -26.50 0.00 0.00
								CHANNELS 6 Xposition Yposition Zposition Yrotation Xrotation Zrotation
								JOINT RightHand
								{
									OFFSET -26.00 0.00 0.00
									CHANNELS 6 Xposition Yposition Zposition Yrotation Xrotation Zrotation
									End Site
									{
										OFFSET -17.50 0 0
									}
								}
							}
						}	
					}
					JOINT LeftShoulder
					{
						OFFSET 3.20 6.94 0.00
						CHANNELS 6 Xposition Yposition Zposition Yrotation Xrotation Zrotation
						JOINT LeftArm
						{
							OFFSET 16.00 0.00 0.00
							CHANNELS 6 Xposition Yposition Zposition Yrotation Xrotation Zrotation
							JOINT LeftForeArm
							{
								OFFSET 26.50 0.00 0.00
								CHANNELS 6 Xposition Yposition Zposition Yrotation Xrotation Zrotation
								JOINT LeftHand
								{
									OFFSET 26.00 0.00 0.00
									CHANNELS 6 Xposition Yposition Zposition Yrotation Xrotation Zrotation
									End Site
									{
										OFFSET 17.50 0 0
									}
								}
							}
						}
					}     			
				}
			}
		} 
	} 
}
MOTION
Frames: 5
Frame Time: 0.010
4.52 93.17 6.39 -99.75 -6.52 -1.60 -9.34 0.04 0.13 -33.35 -1.20 -2.49 0.11 -41.97 0.21 29.09 19.82 0.03 0.02 -42.02 0.18 -2.31 -13.21 4.64 9.20 0.02 -0.10 23.46 -0.50 1.63 -0.01 -41.97 -0.09 -9.85 11.99 0.64 0.01 -42.03 -0.03 -0.38 -4.73 -9.19 0.10 10.46 -0.01 0.51 7.96 -2.18 0.18 9.74 -0.07 0.11 1.98 -0.55 0.07 10.15 -0.03 0.13 3.27 -0.92 0.13 9.75 -0.06 0.34 -1.00 -0.12 0.55 10.42 -0.14 0.34 -1.00 -0.12 0.39 9.51 -0.07 6.98 -16.76 -3.24 -3.05 6.93 -0.07 3.20 8.87 -1.53 -15.87 -0.02 0.00 15.62 -20.24 70.82 -26.52 -0.10 0.03 109.12 -18.18 15.22 -26.00 0.01 0.01 2.94 -6.45 -19.64 3.35 6.96 -0.19 -3.13 -1.40 -10.79 15.98 0.06 -0.06 -34.48 -10.96 -63.71 26.50 0.01 -0.00 -109.24 -14.46 -16.76 26.00 0.03 -0.03 3.35 25.54 13.43 
4.57 93.13 6.13 -100.23 -6.49 -1.66 -9.35 0.03 0.07 -31.66 -0.97 -2.18 0.06 -41.98 0.20 27.45 19.34 -0.12 0.01 -42.02 0.18 -2.32 -12.97 3.57 9.19 0.03 -0.12 23.38 -1.06 1.77 -0.04 -41.97 -0.06 -9.60 12.99 0.69 -0.01 -42.04 0.01 -0.09 -5.10 -9.10 0.11 10.46 -0.03 0.73 8.11 -1.90 0.19 9.74 -0.10 0.16 2.01 -0.48 0.06 10.15 -0.03 0.23 3.32 -0.80 0.14 9.75 -0.06 0.38 -1.03 -0.15 0.57 10.43 -0.19 0.38 -1.03 -0.15 0.41 9.52 -0.09 7.93 -17.02 -3.83 -3.05 6.94 -0.09 3.33 8.89 -1.43 -15.89 -0.01 -0.01 16.15 -20.43 70.52 -26.52 -0.09 0.03 109.04 -17.73 14.97 -26.00 0.01 0.01 2.66 -6.33 -19.44 3.35 6.95 -0.19 -3.02 -1.39 -10.78 15.94 0.06 -0.03 -33.57 -10.80 -63.63 26.49 -0.01 0.03 -109.46 -14.78 -17.10 26.00 0.02 -0.04 2.63 25.43 13.20 
4.61 93.11 5.90 -100.69 -6.43 -1.77 -9.27 0.02 0.04 -30.04 -0.92 -2.14 0.08 -41.98 0.12 25.91 18.61 -0.00 0.01 -42.02 0.14 -2.15 -12.36 2.74 9.21 0.04 -0.04 23.63 -1.44 1.93 -0.06 -41.97 0.03 -9.64 13.69 0.74 -0.00 -42.03 0.02 0.13 -5.29 -9.01 0.11 10.47 -0.04 0.96 8.28 -1.58 0.19 9.75 -0.12 0.23 2.05 -0.41 0.05 10.15 -0.04 0.34 3.37 -0.67 0.13 9.75 -0.07 0.42 -1.07 -0.17 0.57 10.43 -0.23 0.42 -1.06 -0.17 0.43 9.54 -0.12 8.79 -17.43 -4.45 -3.05 6.94 -0.10 3.38 8.97 -1.39 -15.90 -0.00 -0.01 16.74 -20.69 70.22 -26.52 -0.08 0.02 109.00 -17.22 14.66 -25.99 0.00 -0.00 2.35 -6.16 -19.25 3.35 6.95 -0.19 -2.97 -1.38 -10.75 15.94 0.05 -0.03 -32.72 -10.74 -63.64 26.49 -0.03 0.02 -109.51 -15.02 -17.36 26.00 0.01 -0.05 1.77 25.27 12.90 
4.67 93.09 5.71 -101.07 -6.33 -1.88 -9.22 0.01 0.04 -29.12 -0.85 -2.09 0.09 -41.96 0.02 25.05 17.66 0.08 0.03 -42.00 0.07 -2.03 -11.32 2.20 9.28 0.05 0.13 23.99 -1.62 2.03 -0.06 -41.97 0.20 -9.70 14.07 0.87 0.01 -42.04 -0.01 0.22 -5.37 -8.96 0.12 10.47 -0.05 1.19 8.45 -1.25 0.20 9.75 -0.13 0.28 2.09 -0.33 0.05 10.15 -0.04 0.44 3.43 -0.54 0.13 9.74 -0.06 0.44 -1.11 -0.19 0.57 10.44 -0.27 0.45 -1.11 -0.19 0.45 9.55 -0.14 9.55 -17.96 -5.05 -3.06 6.94 -0.10 3.34 9.08 -1.40 -15.91 -0.00 -0.01 17.40 -20.93 69.97 -26.53 -0.07 0.02 109.02 -16.73 14.38 -25.99 -0.00 -0.02 1.88 -5.92 -19.11 3.34 6.94 -0.18 -2.94 -1.39 -10.70 15.97 0.05 -0.05 -32.03 -10.75 -63.77 26.48 -0.02 -0.02 -109.33 -15.27 -17.56 26.00 0.01 -0.06 0.86 25.11 12.57 
4.72 93.07 5.54 -101.37 -6.18 -1.96 -9.21 0.01 0.08 -28.73 -0.68 -2.01 0.09 -41.95 -0.01 24.73 16.68 0.13 0.06 -41.99 0.02 -2.02 -10.43 1.71 9.34 0.06 0.31 24.27 -1.82 2.06 -0.07 -41.96 0.39 -9.63 14.54 1.05 0.02 -42.04 -0.01 0.16 -5.46 -8.98 0.13 10.47 -0.06 1.42 8.58 -0.91 0.20 9.76 -0.14 0.34 2.11 -0.25 0.04 10.15 -0.04 0.55 3.47 -0.40 0.13 9.74 -0.06 0.47 -1.16 -0.22 0.56 10.44 -0.30 0.47 -1.15 -0.22 0.46 9.57 -0.16 10.18 -18.53 -5.66 -3.06 6.94 -0.09 3.21 9.20 -1.48 -15.92 -0.00 -0.00 18.09 -21.10 69.74 -26.52 -0.06 0.02 109.00 -16.28 14.12 -25.99 -0.01 -0.02 1.41 -5.64 -19.04 3.33 6.94 -0.17 -3.00 -1.39 -10.68 15.97 0.04 -0.05 -31.08 -10.63 -63.98 26.47 -0.04 -0.04 -109.22 -15.65 -17.83 26.00 -0.02 -0.07 -0.08 24.87 12.10 
